<svg width="38" height="40" viewBox="0 0 38 40" fill="none" xmlns="http://www.w3.org/2000/svg">
<path d="M37.4232 9.71004C36.2201 5.46498 32.6965 3.65945 28.657 4.34596C24.9375 4.97797 22.9941 9.60704 22.089 12.4141C22.3585 8.69602 21.6698 3.52545 17.2265 1.11141C10.4367 -2.57815 6.1397 4.02845 5.70995 4.88597C5.28021 5.74398 5.2797 5.90798 6.4833 5.82998C6.84193 5.80648 9.96688 4.92847 13.0332 5.48198L14.4762 4.15346L15.1449 6.02548C17.6858 6.914 19.7239 9.19203 20.0915 12.6071C18.0304 10.0775 14.8509 8.44852 11.2711 8.44852C5.0458 8.44852 0 13.3491 0 19.3937C0 19.8802 0.0100175 19.5312 0.0100175 19.5312C0.027548 19.7602 0.17781 19.9582 0.394187 20.0367C0.610564 20.1147 0.852987 20.0587 1.01327 19.8942C1.01327 19.8942 1.13899 19.6992 1.70297 19.1842C2.6967 18.2767 3.78961 17.4772 4.96065 16.7951L6.03151 14.7996L7.47653 15.5656C9.64481 14.7031 12.0094 14.2271 14.4863 14.2271C16.1196 14.2271 17.7059 14.4341 19.2185 14.8221C15.7304 14.5916 10.4733 16.4066 8.39213 20.8377C5.81364 26.3288 8.35106 30.6869 8.7177 31.0279C9.01872 31.3074 9.38236 31.0894 9.48103 30.6024C9.6964 29.5373 10.2889 27.5468 11.3763 25.3138L10.9371 23.5428L12.1462 23.8518C13.6618 21.1842 15.8807 18.3827 19.0197 16.4961C16.5939 21.8312 14.5969 29.6288 17.6398 40H25.1128C25.1128 40 17.5261 32.6644 21.4689 17.6222C22.3259 18.7272 23.4163 20.3312 24.3259 22.2852L25.4759 22.4302L24.962 23.8043C25.5921 25.4868 26.0449 27.3663 26.108 29.3773C26.124 29.8908 26.4346 30.2709 26.5929 29.9343C29.0206 24.7693 28.2573 19.4827 24.8538 16.3981C26.9996 17.1047 28.7536 18.8272 30.12 20.7977L31.7493 21.1467L31.4458 22.9807C32.5893 25.1513 33.291 27.2998 33.5415 28.5318C33.6401 29.0168 33.8981 29.3333 34.2086 28.7813C36.0609 25.4903 36.3003 19.1752 32.9524 15.7176C30.3569 13.0381 25.7769 12.8616 22.956 13.6041C24.8077 10.4961 29.7624 10.2645 29.7624 10.2645C29.7624 10.2645 30.5457 8.46302 30.7181 8.20552C30.8898 7.94801 31.8355 9.96054 31.8355 9.96054L36.8242 11.9946C36.8242 11.9946 37.4648 12.4316 37.5895 11.6891C37.6647 11.2406 37.7102 10.5496 37.4217 9.70904L37.4232 9.71004Z" fill="#C4B7CF"/>
</svg>
